<svg width="100" height="100" viewBox="0 0 100 100" xmlns="http://www.w3.org/2000/svg">
  <defs>
    <linearGradient id="aiGradient" x1="0%" y1="0%" x2="100%" y2="100%">
      <stop offset="0%" style="stop-color:#3e6ae1;stop-opacity:1" />
      <stop offset="100%" style="stop-color:#171a20;stop-opacity:1" />
    </linearGradient>
  </defs>
  
  <!-- Robot head -->
  <rect x="25" y="20" width="50" height="40" rx="8" fill="url(#aiGradient)" opacity="0.1" stroke="#3e6ae1" stroke-width="1"/>
  
  <!-- Eyes -->
  <circle cx="35" cy="35" r="4" fill="#3e6ae1"/>
  <circle cx="65" cy="35" r="4" fill="#3e6ae1"/>
  
  <!-- Eye highlights -->
  <circle cx="36" cy="34" r="1.5" fill="white"/>
  <circle cx="66" cy="34" r="1.5" fill="white"/>
  
  <!-- Mouth -->
  <rect x="40" y="45" width="20" height="2" rx="1" fill="#3e6ae1"/>
  
  <!-- Antenna -->
  <line x1="50" y1="20" x2="50" y2="10" stroke="#3e6ae1" stroke-width="1"/>
  <circle cx="50" cy="10" r="2" fill="#3e6ae1"/>
  
  <!-- Neural network connections -->
  <line x1="20" y1="30" x2="25" y2="30" stroke="#3e6ae1" stroke-width="1" opacity="0.6"/>
  <line x1="20" y1="40" x2="25" y2="40" stroke="#3e6ae1" stroke-width="1" opacity="0.6"/>
  <line x1="20" y1="50" x2="25" y2="50" stroke="#3e6ae1" stroke-width="1" opacity="0.6"/>
  
  <line x1="75" y1="30" x2="80" y2="30" stroke="#3e6ae1" stroke-width="1" opacity="0.6"/>
  <line x1="75" y1="40" x2="80" y2="40" stroke="#3e6ae1" stroke-width="1" opacity="0.6"/>
  <line x1="75" y1="50" x2="80" y2="50" stroke="#3e6ae1" stroke-width="1" opacity="0.6"/>
  
  <!-- Data flow lines -->
  <path d="M 20 30 Q 10 20 15 10" fill="none" stroke="#3e6ae1" stroke-width="1" opacity="0.4"/>
  <path d="M 80 40 Q 90 30 85 15" fill="none" stroke="#3e6ae1" stroke-width="1" opacity="0.4"/>
  
  <!-- Floating data elements -->
  <circle cx="15" cy="10" r="2" fill="#3e6ae1" opacity="0.6"/>
  <circle cx="85" cy="15" r="2" fill="#3e6ae1" opacity="0.6"/>
</svg>

