<svg width="100" height="100" viewBox="0 0 100 100" xmlns="http://www.w3.org/2000/svg">
  <defs>
    <linearGradient id="iconGradient" x1="0%" y1="0%" x2="100%" y2="100%">
      <stop offset="0%" style="stop-color:#3e6ae1;stop-opacity:1" />
      <stop offset="100%" style="stop-color:#171a20;stop-opacity:1" />
    </linearGradient>
  </defs>
  
  <!-- Chart bars -->
  <rect x="15" y="60" width="8" height="25" fill="url(#iconGradient)" opacity="0.8"/>
  <rect x="28" y="45" width="8" height="40" fill="url(#iconGradient)" opacity="0.8"/>
  <rect x="41" y="30" width="8" height="55" fill="url(#iconGradient)" opacity="0.8"/>
  <rect x="54" y="50" width="8" height="35" fill="url(#iconGradient)" opacity="0.8"/>
  <rect x="67" y="20" width="8" height="65" fill="url(#iconGradient)" opacity="0.8"/>
  <rect x="80" y="35" width="8" height="50" fill="url(#iconGradient)" opacity="0.8"/>
  
  <!-- Base line -->
  <line x1="10" y1="85" x2="90" y2="85" stroke="#171a20" stroke-width="1"/>
  
  <!-- Trend line -->
  <path d="M 15 65 Q 28 50 41 35 Q 54 45 67 25 Q 80 40" 
        fill="none" stroke="#3e6ae1" stroke-width="2" opacity="0.7"/>
  
  <!-- Data points -->
  <circle cx="15" cy="65" r="2" fill="#3e6ae1"/>
  <circle cx="28" cy="50" r="2" fill="#3e6ae1"/>
  <circle cx="41" cy="35" r="2" fill="#3e6ae1"/>
  <circle cx="54" cy="45" r="2" fill="#3e6ae1"/>
  <circle cx="67" cy="25" r="2" fill="#3e6ae1"/>
  <circle cx="80" cy="40" r="2" fill="#3e6ae1"/>
</svg>

