<svg width="100" height="100" viewBox="0 0 100 100" xmlns="http://www.w3.org/2000/svg">
  <defs>
    <linearGradient id="bulkGradient" x1="0%" y1="0%" x2="100%" y2="100%">
      <stop offset="0%" style="stop-color:#3e6ae1;stop-opacity:1" />
      <stop offset="100%" style="stop-color:#171a20;stop-opacity:1" />
    </linearGradient>
  </defs>
  
  <!-- Stack of documents -->
  <rect x="20" y="25" width="35" height="45" rx="2" fill="white" stroke="#3e6ae1" stroke-width="1"/>
  <rect x="25" y="20" width="35" height="45" rx="2" fill="#f8f9fa" stroke="#3e6ae1" stroke-width="1"/>
  <rect x="30" y="15" width="35" height="45" rx="2" fill="#e9ecef" stroke="#3e6ae1" stroke-width="1"/>
  
  <!-- Document content lines -->
  <rect x="35" y="25" width="25" height="1" rx="0.5" fill="#3e6ae1" opacity="0.6"/>
  <rect x="35" y="28" width="20" height="1" rx="0.5" fill="#3e6ae1" opacity="0.6"/>
  <rect x="35" y="31" width="22" height="1" rx="0.5" fill="#3e6ae1" opacity="0.6"/>
  <rect x="35" y="34" width="18" height="1" rx="0.5" fill="#3e6ae1" opacity="0.6"/>
  
  <rect x="40" y="20" width="25" height="1" rx="0.5" fill="#3e6ae1" opacity="0.6"/>
  <rect x="40" y="23" width="20" height="1" rx="0.5" fill="#3e6ae1" opacity="0.6"/>
  <rect x="40" y="26" width="22" height="1" rx="0.5" fill="#3e6ae1" opacity="0.6"/>
  
  <rect x="45" y="15" width="25" height="1" rx="0.5" fill="#3e6ae1" opacity="0.6"/>
  <rect x="45" y="18" width="20" height="1" rx="0.5" fill="#3e6ae1" opacity="0.6"/>
  <rect x="45" y="21" width="22" height="1" rx="0.5" fill="#3e6ae1" opacity="0.6"/>
  
  <!-- Processing arrow -->
  <path d="M 65 40 L 75 40 L 72 37 L 75 40 L 72 43 Z" fill="#3e6ae1"/>
  
  <!-- Output indicator -->
  <rect x="80" y="35" width="15" height="20" rx="2" fill="url(#bulkGradient)" opacity="0.1" stroke="#3e6ae1" stroke-width="1"/>
  <path d="M 85 40 L 87 42 L 91 38" fill="none" stroke="#3e6ae1" stroke-width="1.5" stroke-linecap="round" stroke-linejoin="round"/>
  
  <!-- Connection lines -->
  <line x1="65" y1="40" x2="80" y2="40" stroke="#3e6ae1" stroke-width="1" opacity="0.4"/>
  
  <!-- Progress dots -->
  <circle cx="70" cy="50" r="1.5" fill="#3e6ae1" opacity="0.6"/>
  <circle cx="75" cy="50" r="1.5" fill="#3e6ae1" opacity="0.6"/>
  <circle cx="80" cy="50" r="1.5" fill="#3e6ae1" opacity="0.6"/>
</svg>

