<svg width="100" height="100" viewBox="0 0 100 100" xmlns="http://www.w3.org/2000/svg">
  <defs>
    <linearGradient id="docGradient" x1="0%" y1="0%" x2="100%" y2="100%">
      <stop offset="0%" style="stop-color:#3e6ae1;stop-opacity:1" />
      <stop offset="100%" style="stop-color:#171a20;stop-opacity:1" />
    </linearGradient>
  </defs>
  
  <!-- Document -->
  <rect x="25" y="15" width="50" height="70" rx="3" fill="white" stroke="#3e6ae1" stroke-width="1"/>
  
  <!-- Document fold -->
  <path d="M 25 15 L 50 15 L 50 25 L 35 25 Z" fill="#f5f5f5" stroke="#3e6ae1" stroke-width="1"/>
  
  <!-- Content lines -->
  <rect x="30" y="35" width="40" height="2" rx="1" fill="#3e6ae1" opacity="0.7"/>
  <rect x="30" y="42" width="35" height="2" rx="1" fill="#3e6ae1" opacity="0.7"/>
  <rect x="30" y="49" width="38" height="2" rx="1" fill="#3e6ae1" opacity="0.7"/>
  <rect x="30" y="56" width="32" height="2" rx="1" fill="#3e6ae1" opacity="0.7"/>
  <rect x="30" y="63" width="36" height="2" rx="1" fill="#3e6ae1" opacity="0.7"/>
  <rect x="30" y="70" width="30" height="2" rx="1" fill="#3e6ae1" opacity="0.7"/>
  
  <!-- Analysis indicators -->
  <circle cx="75" cy="30" r="8" fill="url(#docGradient)" opacity="0.1" stroke="#3e6ae1" stroke-width="1"/>
  <path d="M 71 30 L 73 32 L 79 26" fill="none" stroke="#3e6ae1" stroke-width="1.5" stroke-linecap="round" stroke-linejoin="round"/>
  
  <!-- Data flow -->
  <line x1="75" y1="38" x2="75" y2="50" stroke="#3e6ae1" stroke-width="1" opacity="0.4"/>
  <line x1="75" y1="50" x2="85" y2="50" stroke="#3e6ae1" stroke-width="1" opacity="0.4"/>
  
  <!-- Processing indicator -->
  <circle cx="85" cy="50" r="3" fill="#3e6ae1" opacity="0.6"/>
  <animateTransform attributeName="transform" type="rotate" values="0 85 50;360 85 50" dur="2s" repeatCount="indefinite"/>
</svg>

